<?xml version="1.0" encoding="UTF-8"?>
<svg width="1920px" height="539px" viewBox="0 0 1920 539" version="1.1" xmlns="http://www.w3.org/2000/svg" xmlns:xlink="http://www.w3.org/1999/xlink">
    <!-- Generator: Sketch 50 (54983) - http://www.bohemiancoding.com/sketch -->
    <title>Path</title>
    <desc>Created with Sketch.</desc>
    <defs></defs>
    <g id="Design" stroke="none" stroke-width="1" fill="none" fill-rule="evenodd">
        <g id="1920" transform="translate(0.000000, -1151.000000)" fill="#FFFFFF">
            <path d="M0,1586.31923 C24.1101152,1609.13794 52.0916759,1626.77171 83.944682,1639.22053 C104.499885,1647.25393 124.673964,1653.9162 140.167599,1658.54576 C149.023445,1661.19193 156.350176,1663.174 161.344948,1664.36844 C175.078261,1667.65258 189.412148,1670.59653 211.331318,1671.68171 C279.005773,1675.03217 379.244118,1650.53952 438.534456,1633.66829 C478.061348,1622.4208 599.29872,1589.10607 802.246571,1533.72411 L1040.22231,1467.63746 L1711.53565,1290.19403 C1742.98895,1282.12538 1771.52124,1271.37064 1797.13255,1257.92982 C1835.5495,1237.76858 1878.67312,1198.7235 1887.25058,1189.2533 C1892.96889,1182.93983 1903.88536,1170.18873 1920,1151 L1920,1690 L0,1690 L0,1586.31923 Z" id="Path" transform="translate(960.000000, 1420.500000) scale(-1, -1) translate(-960.000000, -1420.500000) "></path>
        </g>
    </g>
</svg>