<?xml version="1.0" encoding="UTF-8"?>
<svg width="4px" height="89px" viewBox="0 0 4 89" version="1.1" xmlns="http://www.w3.org/2000/svg" xmlns:xlink="http://www.w3.org/1999/xlink">
    <!-- Generator: Sketch 50 (54983) - http://www.bohemiancoding.com/sketch -->
    <title>Path 6</title>
    <desc>Created with Sketch.</desc>
    <defs>
        <linearGradient x1="2.78571429%" y1="4.76317081%" x2="87.327567%" y2="69.388089%" id="linearGradient-1">
            <stop stop-color="#384DFF" offset="0%"></stop>
            <stop stop-color="#24CDFF" offset="100%"></stop>
        </linearGradient>
    </defs>
    <g id="Design" stroke="none" stroke-width="1" fill="none" fill-rule="evenodd">
        <g id="Home" transform="translate(-650.000000, -1620.000000)" fill="url(#linearGradient-1)" fill-rule="nonzero">
            <path d="M650.5,1622 C650.5,1621.17157 651.171573,1620.5 652,1620.5 C652.828427,1620.5 653.5,1621.17157 653.5,1622 L653.5,1623 C653.5,1623.82843 652.828427,1624.5 652,1624.5 C651.171573,1624.5 650.5,1623.82843 650.5,1623 L650.5,1622 Z M650.5,1643 C650.5,1642.17157 651.171573,1641.5 652,1641.5 C652.828427,1641.5 653.5,1642.17157 653.5,1643 L653.5,1644 C653.5,1644.82843 652.828427,1645.5 652,1645.5 C651.171573,1645.5 650.5,1644.82843 650.5,1644 L650.5,1643 Z M650.5,1664 C650.5,1663.17157 651.171573,1662.5 652,1662.5 C652.828427,1662.5 653.5,1663.17157 653.5,1664 L653.5,1665 C653.5,1665.82843 652.828427,1666.5 652,1666.5 C651.171573,1666.5 650.5,1665.82843 650.5,1665 L650.5,1664 Z M650.5,1685 C650.5,1684.17157 651.171573,1683.5 652,1683.5 C652.828427,1683.5 653.5,1684.17157 653.5,1685 L653.5,1686 C653.5,1686.82843 652.828427,1687.5 652,1687.5 C651.171573,1687.5 650.5,1686.82843 650.5,1686 L650.5,1685 Z M650.5,1706 C650.5,1705.17157 651.171573,1704.5 652,1704.5 C652.828427,1704.5 653.5,1705.17157 653.5,1706 L653.5,1707 C653.5,1707.82843 652.828427,1708.5 652,1708.5 C651.171573,1708.5 650.5,1707.82843 650.5,1707 L650.5,1706 Z" id="Path-6"></path>
        </g>
    </g>
</svg>